Screens
 
http://bayimg.com/PApgLAadD

Seeding Time 24/7

Don't Forget To Say Thanks If You Like My Post



-=Media Info=-


Format : Flash Video
File size : 127 MiB
Duration : 37mn 4s
Overall bit rate : 478 Kbps
Tagged date : UTC 2010-12-08 04:25:12
Tagging application : inlet media FLVTool2 v1.0.6 - http://www.inlet-media.de/flvtool2

Video
Format : VP6
Codec ID : 4
Duration : 37mn 4s
Bit rate : 406 Kbps
Width : 528 pixels
Height : 400 pixels
Display aspect ratio : 4:3
Frame rate mode : Constant
Frame rate : 25.000 fps
Bit depth : 8 bits
Bits/(Pixel*Frame) : 0.077
Stream size : 108 MiB (85%)

Audio
Format : MPEG Audio
Format version : Version 2
Format profile : Layer 3
Mode : Joint stereo
Mode extension : MS Stereo
Codec ID : 2
Codec ID/Hint : MP3
Duration : 37mn 3s
Bit rate mode : Constant
Bit rate : 64.0 Kbps
Channel(s) : 2 channels
Sampling rate : 22.05 KHz
Compression mode : Lossy
Stream size : 17.9 MiB (14%)